<svg width="16" height="16" viewBox="0 0 16 16" fill="none" xmlns="http://www.w3.org/2000/svg">
<path d="M3.52665 10.5267C3.58862 10.5892 3.66236 10.6388 3.7436 10.6726C3.82483 10.7065 3.91197 10.7239 3.99998 10.7239C4.08799 10.7239 4.17513 10.7065 4.25636 10.6726C4.3376 10.6388 4.41134 10.5892 4.47331 10.5267L7.52665 7.47334C7.58862 7.41086 7.66236 7.36126 7.7436 7.32742C7.82484 7.29357 7.91197 7.27615 7.99998 7.27615C8.08799 7.27615 8.17513 7.29357 8.25636 7.32742C8.3376 7.36126 8.41134 7.41086 8.47331 7.47334L11.5266 10.5267C11.5886 10.5892 11.6624 10.6388 11.7436 10.6726C11.8248 10.7065 11.912 10.7239 12 10.7239C12.088 10.7239 12.1751 10.7065 12.2564 10.6726C12.3376 10.6388 12.4113 10.5892 12.4733 10.5267C12.5975 10.4018 12.6672 10.2328 12.6672 10.0567C12.6672 9.88055 12.5975 9.71159 12.4733 9.58668L9.41331 6.52668C9.03831 6.15214 8.52998 5.94177 7.99998 5.94177C7.46998 5.94177 6.96165 6.15214 6.58665 6.52668L3.52665 9.58668C3.40248 9.71159 3.33278 9.88055 3.33278 10.0567C3.33278 10.2328 3.40248 10.4018 3.52665 10.5267Z" fill="black"/>
</svg>
